# xmcd
#
# Track frame offsets: 
#        150
#        37003
#        48865
#        66113
#        82658
#        118535
#        140020
#        162198
#        178868
#        212915
#
# Disc length: 2961 seconds
#
# Revision: 3
# Processed by: cddbd v1.5.2PL0 Copyright (c) Steve Scherf et al.
# Submitted via: ExactAudioCopyFreeDBPlugin 1.0
#
DISCID=870b8f0a
DTITLE=Patricia Kaas - Carnets De Scène [CD2]
DYEAR=1900
DGENRE=Blues
TTITLE0=Regarde Les Riches
TTITLE1=Summertime
TTITLE2=Patou Blues
TTITLE3=Kennedy Rose
TTITLE4=Mademoiselle Chante Le Blues
TTITLE5=Bessie
TTITLE6=Les Hommes Qui Passent
TTITLE7=Une Dernière Semaine À New York
TTITLE8=Quand Jimmy Dit
TTITLE9=Un Dernier Blues
EXTD=
EXTT0=
EXTT1=
EXTT2=
EXTT3=
EXTT4=
EXTT5=
EXTT6=
EXTT7=
EXTT8=
EXTT9=
PLAYORDER=
